<svg width="27" height="27" viewBox="0 0 27 27" fill="none" xmlns="http://www.w3.org/2000/svg">
<path d="M24.5154 2.34732C23.8491 1.60277 23.058 1.01224 22.1873 0.609474C21.3166 0.206708 20.3834 -0.000394831 19.441 5.65092e-07C18.4987 0.000395961 17.5656 0.208282 16.6952 0.611778C15.8248 1.01527 15.034 1.60647 14.3682 2.35158L13.499 3.33459L12.6371 2.35371L12.6315 2.34745C11.9654 1.60325 11.1748 1.01291 10.3045 0.610153C9.43433 0.207393 8.50164 9.53865e-05 7.55972 9.53865e-05C6.61781 9.53865e-05 5.68512 0.207393 4.81491 0.610153C3.9447 1.01291 3.154 1.60325 2.48797 2.34745L2.10077 2.7801C0.75567 4.28307 0 6.32153 0 8.44705C0 10.5726 0.75567 12.611 2.10077 14.114L12.3201 25.5326L13.4741 26.8836L13.5016 26.8528L13.5315 26.8862L14.6128 25.6115L24.9026 14.1138C26.2457 12.6097 27 10.5716 27 8.44686C27 6.32209 26.2457 4.28407 24.9026 2.77991L24.5154 2.34732ZM23.6344 12.6971L13.5016 24.0194L3.36862 12.6971C2.3598 11.5699 1.79305 10.041 1.79305 8.4469C1.79305 6.85276 2.3598 5.32392 3.36862 4.19669L3.75588 3.76404C4.76422 2.63737 6.13165 2.00415 7.55765 2.00355C8.98364 2.00296 10.3515 2.63503 11.3606 3.76085L13.4951 6.18937L15.6398 3.76404C16.1394 3.20589 16.7324 2.76314 17.385 2.46107C18.0377 2.159 18.7372 2.00352 19.4437 2.00352C20.1501 2.00352 20.8496 2.159 21.5023 2.46107C22.1549 2.76314 22.7479 3.20589 23.2475 3.76404L23.6347 4.19662C24.642 5.32478 25.2076 6.85332 25.2076 8.44692C25.2076 10.0405 24.6418 11.569 23.6344 12.6971Z" fill="#FFD207"/>
</svg>
